<svg xmlns="http://www.w3.org/2000/svg" width="720" height="620" viewBox="0 0 720 620"><style>text{font-family:Arial,sans-serif;fill:#111827}.t{font-size:24px;font-weight:700}.h{font-size:18px;font-weight:700}.n{font-size:20px;font-weight:700}.p{font-size:14px}</style><rect width="720" height="620" fill="#fff"/><text x="35" y="40" class="t">Holdout confusion matrix — Logistic Regression</text><text x="330" y="78" class="h">Predicted</text><text x="20" y="320" class="h" transform="rotate(-90 20 320)">Actual</text><g transform="translate(140,110)"><text x="65" y="-15" class="h">P1</text><text x="185" y="-15" class="h">P2</text><text x="305" y="-15" class="h">P3</text><text x="425" y="-15" class="h">P4</text><text x="-42" y="70" class="h">P1</text><text x="-42" y="190" class="h">P2</text><text x="-42" y="310" class="h">P3</text><text x="-42" y="430" class="h">P4</text><g fill="#dbeafe" stroke="#fff" stroke-width="3"><rect x="0" y="0" width="120" height="120"/><rect x="120" y="0" width="120" height="120"/><rect x="240" y="0" width="120" height="120"/><rect x="360" y="0" width="120" height="120"/><rect x="0" y="120" width="120" height="120"/><rect x="120" y="120" width="120" height="120" fill="#93c5fd"/><rect x="240" y="120" width="120" height="120"/><rect x="360" y="120" width="120" height="120"/><rect x="0" y="240" width="120" height="120"/><rect x="120" y="240" width="120" height="120"/><rect x="240" y="240" width="120" height="120" fill="#3b82f6"/><rect x="360" y="240" width="120" height="120"/><rect x="0" y="360" width="120" height="120"/><rect x="120" y="360" width="120" height="120"/><rect x="240" y="360" width="120" height="120"/><rect x="360" y="360" width="120" height="120" fill="#2563eb"/></g><g text-anchor="middle"><text x="60" y="55" class="n">229</text><text x="60" y="80" class="p">90.9%</text><text x="180" y="65" class="n">23</text><text x="300" y="65" class="n">0</text><text x="420" y="65" class="n">0</text><text x="60" y="185" class="n">83</text><text x="180" y="175" class="n">709</text><text x="180" y="200" class="p">82.6%</text><text x="300" y="185" class="n">62</text><text x="420" y="185" class="n">4</text><text x="60" y="305" class="n">10</text><text x="180" y="305" class="n">211</text><text x="300" y="295" class="n">2010</text><text x="300" y="320" class="p">82.7%</text><text x="420" y="305" class="n">199</text><text x="60" y="425" class="n">1</text><text x="180" y="425" class="n">0</text><text x="300" y="425" class="n">275</text><text x="420" y="415" class="n">2184</text><text x="420" y="440" class="p">88.8%</text></g></g><text x="35" y="600" class="p">Most P1 errors were conservative P1 → P2 downgrades; none were predicted as P3/P4.</text></svg>